<svg width="1656" height="411" viewBox="0 0 1656 411" fill="none" xmlns="http://www.w3.org/2000/svg">
<path fill-rule="evenodd" clip-rule="evenodd" d="M756.202 81.1882C754.764 82.3514 755.785 85.3563 755.993 87.2449C755.661 103.109 731.269 61.0491 749.725 68.355L751.656 67.8942L753.476 67.1089C763.68 50.2844 770.096 98.3142 760.089 85.8845C759.095 84.2568 758.062 81.256 756.202 81.1882L756.202 81.1882Z" fill="#DBF4FA"/>
<path fill-rule="evenodd" clip-rule="evenodd" d="M1310.71 79.7274C1309.27 80.8905 1310.29 83.8954 1310.5 85.784C1310.17 101.648 1285.77 59.5882 1304.23 66.8941L1306.16 66.4333L1307.98 65.648C1318.18 48.8235 1324.6 96.8533 1314.59 84.4236C1313.6 82.7959 1312.57 79.7951 1310.71 79.7274L1310.71 79.7274Z" fill="#FFDDF6"/>
<path fill-rule="evenodd" clip-rule="evenodd" d="M1127.46 78.1713C1128.52 79.6798 1126.7 82.2917 1125.97 84.0508C1121.86 99.392 1157.05 65.5731 1137.27 67.5908L1135.54 66.6239L1134.01 65.3752C1128.9 46.4329 1109.32 90.867 1122.41 81.632C1123.82 80.3368 1125.65 77.732 1127.46 78.1713L1127.46 78.1713Z" fill="#FFF2D7"/>
<path fill-rule="evenodd" clip-rule="evenodd" d="M1207.73 50.7274C1209.17 51.8905 1208.15 54.8954 1207.94 56.784C1208.27 72.6479 1232.66 30.5882 1214.21 37.8941L1212.28 37.4333L1210.46 36.648C1200.25 19.8235 1193.84 67.8533 1203.84 55.4236C1204.84 53.7959 1205.87 50.7951 1207.73 50.7274L1207.73 50.7274Z" fill="#EDDFF5"/>
<path fill-rule="evenodd" clip-rule="evenodd" d="M547.155 66.3509C548.594 65.1877 547.573 62.1829 547.365 60.2943C547.697 44.4304 572.088 86.49 553.633 79.1842L551.701 79.6449L549.881 80.4302C539.678 97.2547 533.261 49.2249 543.269 61.6546C544.263 63.2823 545.296 66.2832 547.155 66.3509L547.155 66.3509Z" fill="#FBF0D3"/>
<path d="M385.656 138.855L385.34 138.676L384.98 138.618C380.111 137.836 375.911 141.106 372.649 144.484C370.952 146.241 369.342 148.209 367.858 150.047C367.697 150.247 367.537 150.445 367.38 150.641C366.094 152.236 364.919 153.695 363.81 154.901C360.792 157.402 358.307 158.963 356.308 159.792C354.28 160.633 352.939 160.65 352.072 160.367C351.249 160.1 350.492 159.445 349.874 158.114C349.242 156.751 348.829 154.815 348.698 152.317C348.169 142.246 352.3 125.414 358.953 109.392C362.262 101.423 366.158 93.7441 370.334 87.3026C374.53 80.8305 378.921 75.7439 383.172 72.8121C387.385 69.9075 391.14 69.2995 394.521 71.0289C398.112 72.8653 401.877 77.6034 405.224 86.9228L405.438 87.5184L405.961 87.8798L412.623 92.4799L412.767 92.5788L412.925 92.6516L420.299 96.0375L420.878 96.3035L421.508 96.1883C431.371 94.3851 437.417 95.2294 440.827 97.3757C444.037 99.397 445.38 102.906 444.934 107.953C444.484 113.048 442.209 119.339 438.62 126.156C435.047 132.941 430.248 140.105 424.899 146.915C414.146 160.603 401.42 172.545 392.306 177.129C390.045 178.266 388.137 178.881 386.624 179.024C385.145 179.162 384.191 178.843 383.544 178.275C382.863 177.676 382.206 176.523 381.932 174.372C381.661 172.25 381.789 169.349 382.479 165.524C382.984 163.974 383.678 162.242 384.437 160.349C384.53 160.115 384.625 159.88 384.72 159.642C385.594 157.456 386.518 155.098 387.214 152.771C388.551 148.298 389.325 143.078 386.203 139.314L385.972 139.035L385.656 138.855Z" stroke="#F5F5F5" stroke-width="4"/>
<path d="M266.182 73.5118L265.912 73.5324L265.652 73.4573C263.317 72.7834 262.241 70.478 261.627 68.6171C261.299 67.6197 261.046 66.5639 260.823 65.6069C260.799 65.5029 260.775 65.4004 260.752 65.2994C260.562 64.4824 260.395 63.7608 260.209 63.1412C259.552 61.7175 258.941 60.7655 258.405 60.1712C257.856 59.5616 257.488 59.4354 257.321 59.4143C257.188 59.3975 256.957 59.4171 256.577 59.7294C256.178 60.0577 255.716 60.6357 255.23 61.5161C253.257 65.0904 251.739 72.0562 251.315 79.2534C251.105 82.8183 251.168 86.3669 251.557 89.4912C251.95 92.6427 252.659 95.2418 253.662 96.9927C254.646 98.7104 255.758 99.3914 257.022 99.3512C258.462 99.3054 260.599 98.3333 263.535 95.4471L263.873 95.1143L264.342 95.0375L267.699 94.4876L267.827 94.4667L267.956 94.468L271.359 94.5028L271.834 94.5076L272.221 94.7852C275.572 97.1923 277.835 97.829 279.264 97.6562C280.52 97.5044 281.513 96.663 282.217 94.8166C282.935 92.9346 283.23 90.2589 283.127 87.0854C283.024 83.9394 282.533 80.4233 281.769 76.9326C280.227 69.8853 277.64 63.2323 275.133 59.9993C274.516 59.203 273.969 58.7019 273.523 58.438C273.1 58.1869 272.868 58.2026 272.739 58.2393C272.578 58.2854 272.233 58.466 271.786 59.1516C271.35 59.8199 270.894 60.8531 270.467 62.3594C270.38 62.9995 270.328 63.7377 270.268 64.5733C270.26 64.6769 270.253 64.7821 270.245 64.8888C270.175 65.8682 270.089 66.9498 269.92 67.9852C269.604 69.917 268.901 72.3579 266.698 73.3776L266.453 73.4913L266.182 73.5118Z" stroke="#F5F5F5" stroke-width="3"/>
<path fill-rule="evenodd" clip-rule="evenodd" d="M998.779 74.8046C996.966 75.2186 995.173 72.5886 993.781 71.274C980.822 61.8577 999.766 106.56 1005.15 87.6907L1006.7 86.4634L1008.44 85.5207C1028.19 87.8135 993.482 53.508 997.373 68.905C998.076 70.674 999.859 73.3109 998.779 74.8046L998.779 74.8046Z" fill="#F5E7C0"/>
<rect x="1633.68" y="61" width="22.3235" height="22" rx="11" fill="#F3D78D"/>
<path d="M1476.26 47.2711L1476.49 51.4084M1493.06 46.3699L1493.28 50.5072M1500.43 65.4274C1500.43 65.4274 1495.22 71.1511 1486.03 71.644C1476.85 72.137 1471.04 67.0045 1471.04 67.0045" stroke="#85CCCA" stroke-width="4" stroke-linecap="round" stroke-linejoin="round"/>
<path d="M217.969 18.5912C218.063 18.4309 218.198 18.2977 218.361 18.2051C219.389 17.6208 220.443 17.0396 221.491 16.4707C221.74 16.3359 222.034 16.3041 222.307 16.3825C222.58 16.4609 222.81 16.6429 222.947 16.8886C223.084 17.1342 223.116 17.4234 223.036 17.6925C222.957 17.9615 222.772 18.1884 222.523 18.3232C221.484 18.8848 220.445 19.459 219.431 20.0347C219.227 20.151 218.989 20.1975 218.755 20.1671C218.521 20.1366 218.304 20.0309 218.137 19.8663C217.971 19.7018 217.864 19.4875 217.833 19.257C217.803 19.0264 217.851 18.7924 217.969 18.5912V18.5912Z" fill="#E8E8E8"/>
<path d="M37.8237 265.326L38.2796 264.549C38.4219 264.307 38.656 264.13 38.9304 264.058C39.2048 263.986 39.497 264.024 39.7428 264.165C39.9886 264.305 40.1678 264.535 40.241 264.806C40.3142 265.076 40.2754 265.364 40.1332 265.607L39.6772 266.383C38.6581 268.118 37.6168 269.926 36.5843 271.748C36.4421 271.99 36.208 272.166 35.9336 272.239C35.6592 272.311 35.367 272.272 35.1212 272.132C34.8754 271.992 34.6962 271.761 34.6229 271.491C34.5497 271.221 34.5885 270.933 34.7308 270.69C35.7508 268.89 36.7956 267.076 37.8237 265.326ZM41.9543 258.468L41.9668 258.447C43.2254 256.409 44.5105 254.382 45.782 252.421C45.8577 252.304 45.956 252.203 46.0714 252.123C46.1867 252.044 46.3168 251.988 46.4543 251.958C46.5917 251.928 46.7338 251.925 46.8724 251.949C47.011 251.973 47.1434 252.024 47.2621 252.099C47.3807 252.173 47.4833 252.27 47.5639 252.384C47.6446 252.498 47.7017 252.626 47.7321 252.761C47.7624 252.897 47.7654 253.037 47.7409 253.173C47.7163 253.31 47.6647 253.44 47.589 253.557C46.3247 255.506 45.0499 257.523 43.7984 259.548C43.6533 259.789 43.4171 259.963 43.1419 260.032C42.8666 260.101 42.5749 260.059 42.3307 259.916C42.0866 259.773 41.9101 259.54 41.8401 259.269C41.7701 258.998 41.8122 258.71 41.9574 258.47L41.9543 258.468ZM31.2709 276.919C31.3393 276.797 31.4313 276.691 31.5415 276.605C31.6517 276.519 31.7781 276.455 31.9134 276.417C32.1865 276.34 32.4794 276.374 32.7276 276.51C32.8505 276.577 32.9587 276.668 33.046 276.777C33.1334 276.885 33.1982 277.01 33.2367 277.143C33.2752 277.276 33.2867 277.416 33.2705 277.553C33.2543 277.691 33.2108 277.824 33.1423 277.945C32.0397 279.97 30.9131 282.071 29.793 284.196C29.6622 284.445 29.4365 284.632 29.1656 284.717C28.8946 284.802 28.6005 284.777 28.3481 284.648C28.0957 284.519 27.9055 284.297 27.8195 284.03C27.7335 283.763 27.7586 283.473 27.8894 283.224C29.0118 281.088 30.1437 278.978 31.2517 276.944L31.2709 276.919ZM49.6955 246.537L49.733 246.473C51.0874 244.49 52.4665 242.521 53.8345 240.627C53.9997 240.397 54.2505 240.242 54.5317 240.195C54.813 240.149 55.1016 240.214 55.3341 240.376C55.5666 240.539 55.724 240.786 55.7716 241.064C55.8192 241.341 55.7531 241.625 55.5879 241.854C54.2319 243.735 52.8636 245.686 51.5146 247.66C51.3641 247.897 51.1241 248.066 50.8472 248.129C50.5704 248.192 50.2795 248.144 50.0384 247.996C49.7974 247.848 49.6259 247.611 49.5619 247.339C49.4978 247.066 49.5463 246.779 49.6968 246.541L49.6955 246.537ZM24.645 289.486C24.7803 289.24 25.0093 289.057 25.2816 288.977C25.5539 288.897 25.8472 288.927 26.0971 289.06C26.3469 289.194 26.5327 289.419 26.6137 289.688C26.6947 289.956 26.6642 290.245 26.5289 290.491C25.4823 292.54 24.4083 294.671 23.3376 296.824C23.2755 296.949 23.189 297.06 23.0832 297.152C22.9774 297.244 22.8543 297.314 22.7209 297.359C22.5876 297.404 22.4465 297.422 22.3058 297.414C22.1652 297.405 22.0276 297.369 21.9011 297.307C21.7746 297.246 21.6616 297.161 21.5684 297.057C21.4753 296.953 21.404 296.831 21.3584 296.7C21.3129 296.568 21.2941 296.429 21.3031 296.291C21.3121 296.152 21.3487 296.016 21.4108 295.892C22.4819 293.731 23.5595 291.594 24.6097 289.539L24.645 289.486ZM18.3183 302.204C18.4512 301.956 18.6784 301.771 18.95 301.688C19.2216 301.606 19.5153 301.633 19.7666 301.764C20.0178 301.895 20.206 302.119 20.2897 302.386C20.3734 302.654 20.3459 302.943 20.213 303.191C19.216 305.24 18.1839 307.39 17.1347 309.584C17.0133 309.838 16.7945 310.034 16.5263 310.13C16.2581 310.225 15.9626 310.211 15.7047 310.091C15.4468 309.972 15.2477 309.756 15.1512 309.492C15.0547 309.228 15.0686 308.936 15.19 308.682C16.2409 306.485 17.2766 304.329 18.2754 302.277L18.3183 302.204ZM58.0251 234.994C58.0434 234.956 58.065 234.919 58.0895 234.884C59.5412 232.981 61.0305 231.091 62.5088 229.276C62.5952 229.164 62.7036 229.07 62.8275 229C62.9514 228.929 63.0884 228.884 63.2303 228.867C63.3722 228.849 63.5162 228.86 63.6538 228.899C63.7914 228.937 63.9198 229.002 64.0314 229.09C64.143 229.178 64.2356 229.288 64.3037 229.412C64.3717 229.536 64.4139 229.672 64.4278 229.812C64.4416 229.952 64.4268 230.094 64.3842 230.228C64.3416 230.363 64.2721 230.488 64.1798 230.595C62.7051 232.404 61.2327 234.279 59.7948 236.166C59.6377 236.4 59.3929 236.562 59.1142 236.618C58.8354 236.674 58.5454 236.619 58.3082 236.464C58.0709 236.309 57.9058 236.068 57.849 235.793C57.7923 235.519 57.8486 235.233 58.0056 234.999L58.0251 234.994ZM12.1996 315.024C12.2646 314.901 12.3535 314.791 12.4614 314.702C12.5692 314.613 12.6937 314.546 12.828 314.504C13.0991 314.42 13.393 314.445 13.6452 314.574C13.8974 314.703 14.0872 314.926 14.1728 315.193C14.2583 315.461 14.2327 315.75 14.1015 315.999C13.0969 318.135 12.0975 320.275 11.1032 322.417C10.9839 322.673 10.7665 322.871 10.4989 322.968C10.2314 323.066 9.93551 323.054 9.67644 322.937C9.41737 322.819 9.21629 322.605 9.11747 322.341C9.01865 322.077 9.03017 321.786 9.14949 321.531C10.1355 319.383 11.1385 317.238 12.1585 315.094L12.1996 315.024ZM142.54 94.0302L142.994 93.2569C143.136 93.0146 143.37 92.838 143.645 92.7659C143.919 92.6937 144.211 92.7319 144.457 92.8721C144.703 93.0123 144.882 93.243 144.955 93.5134C145.028 93.7839 144.99 94.0719 144.847 94.3141V94.3141C143.655 96.3448 142.452 98.3937 141.346 100.445C141.279 100.567 141.188 100.675 141.079 100.763C140.97 100.85 140.845 100.916 140.71 100.956C140.575 100.996 140.434 101.009 140.294 100.995C140.154 100.98 140.018 100.939 139.894 100.873C139.77 100.807 139.66 100.718 139.571 100.61C139.482 100.502 139.416 100.378 139.376 100.245C139.336 100.112 139.322 99.9722 139.337 99.8341C139.352 99.6959 139.394 99.5619 139.462 99.4399C140.451 97.6507 141.488 95.8203 142.54 94.0302V94.0302ZM146.719 87.2084L146.739 87.1749C148.011 85.1774 149.338 83.1706 150.681 81.2136C150.76 81.0984 150.861 80.9996 150.979 80.9229C151.096 80.8462 151.228 80.793 151.366 80.7664C151.504 80.7399 151.647 80.7404 151.785 80.768C151.923 80.7957 152.054 80.8498 152.171 80.9274C152.288 81.0051 152.388 81.1046 152.466 81.2204C152.544 81.3362 152.598 81.466 152.625 81.6023C152.652 81.7386 152.651 81.8789 152.623 82.015C152.595 82.1512 152.54 82.2805 152.461 82.3957C151.132 84.3362 149.821 86.3234 148.558 88.2979C148.411 88.5375 148.174 88.7099 147.898 88.7771C147.622 88.8443 147.331 88.8008 147.088 88.6562C146.845 88.5115 146.67 88.2776 146.601 88.0059C146.533 87.7341 146.577 87.4468 146.724 87.2071L146.719 87.2084ZM136.154 105.718C136.221 105.596 136.311 105.488 136.42 105.401C136.529 105.313 136.655 105.248 136.79 105.208C136.924 105.168 137.066 105.155 137.206 105.169C137.346 105.183 137.481 105.225 137.605 105.29C137.729 105.356 137.839 105.445 137.927 105.553C138.016 105.66 138.083 105.784 138.123 105.917C138.163 106.05 138.177 106.189 138.162 106.327C138.148 106.465 138.106 106.599 138.04 106.721C136.981 108.811 135.94 110.949 134.942 113.083C134.823 113.338 134.606 113.536 134.338 113.634C134.071 113.731 133.775 113.72 133.516 113.602C133.257 113.485 133.056 113.27 132.957 113.007C132.858 112.743 132.869 112.451 132.989 112.196C133.99 110.048 135.041 107.888 136.11 105.779L136.154 105.718ZM67.0041 223.939C67.0324 223.881 67.0653 223.825 67.1025 223.772C68.6719 221.956 70.2785 220.162 71.8855 218.437C71.9792 218.33 72.0935 218.243 72.2217 218.181C72.3499 218.119 72.4894 218.083 72.632 218.075C72.7746 218.067 72.9174 218.087 73.0521 218.134C73.1867 218.181 73.3104 218.254 73.4159 218.349C73.5214 218.444 73.6066 218.559 73.6664 218.686C73.7263 218.814 73.7595 218.953 73.7643 219.093C73.7691 219.234 73.7452 219.374 73.6942 219.506C73.6431 219.637 73.5658 219.757 73.467 219.859C71.8848 221.57 70.2992 223.336 68.7382 225.144C68.5649 225.344 68.3223 225.472 68.0578 225.505C67.7932 225.538 67.5258 225.472 67.3078 225.321C67.0898 225.17 66.9369 224.944 66.879 224.687C66.8212 224.431 66.8625 224.162 66.9949 223.934L67.0041 223.939ZM154.756 75.4699L154.811 75.3755C156.221 73.4525 157.677 71.5354 159.138 69.6785C159.312 69.457 159.568 69.3126 159.85 69.2772C160.132 69.2417 160.417 69.318 160.641 69.4893C160.866 69.6606 161.013 69.9129 161.049 70.1907C161.085 70.4685 161.007 70.749 160.833 70.9705C159.385 72.8109 157.945 74.7084 156.546 76.6132C156.47 76.7297 156.371 76.8301 156.255 76.9089C156.139 76.9876 156.008 77.0431 155.871 77.0721C155.733 77.1012 155.591 77.1032 155.452 77.0781C155.314 77.053 155.182 77.0012 155.063 76.9258C154.945 76.8504 154.843 76.7528 154.763 76.6385C154.684 76.5243 154.627 76.3957 154.598 76.26C154.568 76.1243 154.566 75.9842 154.592 75.8478C154.617 75.7113 154.67 75.5811 154.746 75.4646L154.756 75.4699ZM130.155 118.587C130.218 118.462 130.305 118.352 130.412 118.261C130.518 118.17 130.642 118.1 130.775 118.056C130.909 118.012 131.05 117.994 131.191 118.004C131.331 118.014 131.468 118.051 131.594 118.113C131.72 118.175 131.833 118.261 131.925 118.366C132.018 118.471 132.088 118.592 132.133 118.724C132.177 118.856 132.195 118.995 132.185 119.133C132.175 119.272 132.138 119.407 132.075 119.531C131.156 121.693 130.263 123.895 129.421 126.073C129.372 126.203 129.297 126.322 129.201 126.423C129.105 126.525 128.99 126.607 128.862 126.664C128.734 126.722 128.596 126.754 128.455 126.759C128.314 126.764 128.174 126.741 128.042 126.693C127.91 126.644 127.79 126.571 127.687 126.476C127.584 126.382 127.501 126.268 127.442 126.142C127.384 126.016 127.351 125.879 127.346 125.741C127.341 125.602 127.364 125.464 127.413 125.334C128.265 123.133 129.182 120.917 130.09 118.732L130.155 118.587ZM163.558 64.274C163.584 64.2197 163.614 64.1678 163.649 64.1187C165.18 62.2976 166.76 60.4793 168.348 58.7152C168.439 58.6031 168.552 58.5104 168.68 58.4427C168.808 58.375 168.949 58.3337 169.094 58.3214C169.239 58.3091 169.385 58.3261 169.523 58.3712C169.661 58.4163 169.788 58.4887 169.897 58.5839C170.006 58.6791 170.094 58.7951 170.155 58.9249C170.217 59.0547 170.251 59.1955 170.256 59.3388C170.261 59.482 170.236 59.6247 170.183 59.7582C170.13 59.8916 170.049 60.013 169.947 60.1149C168.377 61.8612 166.812 63.663 165.296 65.4646C165.124 65.6636 164.882 65.7923 164.619 65.8259C164.356 65.8595 164.089 65.7955 163.871 65.6462C163.653 65.497 163.499 65.2732 163.439 65.0184C163.378 64.7635 163.417 64.4957 163.545 64.2669L163.558 64.274ZM76.6966 213.475C76.7421 213.398 76.7964 213.327 76.8585 213.262C78.5415 211.576 80.2828 209.903 82.0398 208.288C82.2486 208.106 82.5215 208.011 82.8004 208.024C83.0792 208.036 83.3419 208.156 83.5325 208.357C83.7231 208.558 83.8266 208.824 83.8209 209.099C83.8152 209.374 83.7007 209.636 83.5019 209.829C81.7685 211.426 80.0477 213.078 78.3883 214.744C78.2059 214.93 77.9609 215.043 77.6997 215.062C77.4385 215.081 77.1792 215.006 76.9708 214.849C76.7624 214.693 76.6194 214.467 76.5689 214.213C76.5184 213.96 76.5638 213.697 76.6966 213.475V213.475ZM125.058 131.831C125.192 131.605 125.406 131.437 125.658 131.358C125.911 131.28 126.184 131.296 126.425 131.404C126.666 131.512 126.858 131.705 126.964 131.944C127.069 132.184 127.081 132.453 126.996 132.701C126.227 134.924 125.484 137.179 124.798 139.409C124.76 139.545 124.696 139.674 124.607 139.785C124.519 139.897 124.409 139.99 124.283 140.059C124.157 140.128 124.019 140.171 123.876 140.186C123.733 140.201 123.588 140.187 123.451 140.146C123.313 140.105 123.185 140.037 123.075 139.946C122.965 139.855 122.874 139.743 122.809 139.616C122.744 139.49 122.705 139.352 122.695 139.211C122.685 139.069 122.703 138.928 122.75 138.794C123.446 136.541 124.178 134.255 124.973 132.018C124.989 131.951 125.011 131.887 125.041 131.825L125.058 131.831ZM173.105 53.6777C173.147 53.6068 173.198 53.5416 173.256 53.4835C174.909 51.7642 176.611 50.0527 178.305 48.3973C178.508 48.2007 178.781 48.0914 179.065 48.0935C179.349 48.0955 179.621 48.2087 179.821 48.4082C180.02 48.6077 180.131 48.8771 180.129 49.1572C180.127 49.4372 180.012 49.705 179.81 49.9016C178.123 51.5369 176.442 53.2277 174.796 54.9269C174.616 55.1154 174.371 55.2319 174.109 55.2542C173.847 55.2765 173.586 55.2031 173.376 55.0478C173.165 54.8926 173.02 54.6664 172.968 54.4124C172.916 54.1584 172.96 53.8944 173.093 53.6706L173.105 53.6777ZM120.874 145.38C121.003 145.158 121.211 144.989 121.457 144.907C121.704 144.824 121.972 144.832 122.213 144.931C122.454 145.029 122.649 145.21 122.764 145.441C122.879 145.671 122.904 145.935 122.836 146.183C122.225 148.452 121.644 150.754 121.12 153.023C121.056 153.296 120.885 153.533 120.644 153.682C120.403 153.831 120.112 153.879 119.835 153.817C119.558 153.754 119.317 153.586 119.166 153.348C119.015 153.111 118.966 152.824 119.03 152.551C119.555 150.253 120.146 147.932 120.766 145.64C120.785 145.548 120.815 145.459 120.856 145.375L120.874 145.38ZM87.2143 203.81C87.2757 203.707 87.3538 203.614 87.4456 203.536C89.2735 201.989 91.1556 200.47 93.0393 199.004C93.1498 198.917 93.2766 198.853 93.4125 198.814C93.5483 198.776 93.6906 198.765 93.831 198.781C93.9713 198.797 94.1071 198.84 94.2304 198.908C94.3536 198.977 94.462 199.068 94.5493 199.178C94.6365 199.287 94.7009 199.413 94.7387 199.547C94.7764 199.681 94.7869 199.821 94.7694 199.96C94.752 200.098 94.7069 200.231 94.6368 200.352C94.5668 200.473 94.4731 200.579 94.3612 200.664C92.5065 202.102 90.6493 203.607 88.8499 205.133C88.658 205.298 88.4128 205.391 88.1581 205.394C87.9033 205.397 87.6559 205.31 87.4601 205.15C87.2643 204.989 87.133 204.765 87.0899 204.517C87.0467 204.27 87.0944 204.015 87.2245 203.8L87.2143 203.81ZM183.34 43.7422C183.394 43.6487 183.463 43.5645 183.545 43.4929C185.31 41.8907 187.128 40.298 188.947 38.7669C189.163 38.5851 189.444 38.4954 189.727 38.5175C190.01 38.5395 190.273 38.6716 190.458 38.8846C190.642 39.0976 190.733 39.3741 190.711 39.6532C190.688 39.9324 190.554 40.1913 190.338 40.3731C188.539 41.8913 186.742 43.4631 184.992 45.0457C184.803 45.2152 184.559 45.3127 184.304 45.3208C184.049 45.3289 183.8 45.2469 183.6 45.0897C183.401 44.9324 183.266 44.7103 183.218 44.4632C183.17 44.2162 183.214 43.9605 183.34 43.7422V43.7422ZM117.675 159.191C117.801 158.975 118.001 158.81 118.239 158.726C118.476 158.641 118.737 158.642 118.974 158.729C119.211 158.815 119.41 158.982 119.534 159.199C119.659 159.416 119.701 159.669 119.654 159.914C119.208 162.22 118.802 164.553 118.461 166.862C118.44 166.999 118.391 167.131 118.318 167.249C118.246 167.368 118.15 167.471 118.036 167.553C117.923 167.636 117.794 167.695 117.658 167.728C117.521 167.761 117.379 167.768 117.24 167.747C117.101 167.726 116.967 167.678 116.847 167.606C116.727 167.535 116.622 167.44 116.538 167.328C116.455 167.217 116.395 167.09 116.361 166.955C116.328 166.821 116.321 166.681 116.342 166.544C116.703 164.217 117.111 161.857 117.577 159.526C117.584 159.409 117.611 159.293 117.657 159.185L117.675 159.191ZM98.5119 195.058C98.5884 194.929 98.6917 194.817 98.8152 194.731C100.77 193.346 102.777 191.987 104.782 190.701C104.9 190.62 105.033 190.563 105.173 190.534C105.314 190.505 105.458 190.504 105.599 190.531C105.74 190.558 105.874 190.613 105.992 190.692C106.111 190.771 106.213 190.873 106.291 190.991C106.369 191.109 106.423 191.242 106.448 191.381C106.473 191.52 106.47 191.663 106.438 191.801C106.406 191.938 106.347 192.069 106.263 192.183C106.179 192.298 106.073 192.395 105.951 192.468C103.969 193.736 101.988 195.086 100.072 196.431C99.8734 196.573 99.6311 196.643 99.3859 196.63C99.1407 196.617 98.9076 196.521 98.7256 196.359C98.5436 196.196 98.4237 195.977 98.3861 195.738C98.3485 195.499 98.3954 195.254 98.519 195.045L98.5119 195.058ZM194.257 34.5286C194.323 34.4149 194.41 34.3143 194.514 34.232C196.397 32.7536 198.324 31.2967 200.247 29.8979C200.476 29.7315 200.763 29.6616 201.044 29.7035C201.325 29.7454 201.578 29.8957 201.747 30.1214C201.916 30.347 201.987 30.6295 201.944 30.9067C201.902 31.1839 201.749 31.4331 201.52 31.5995C199.619 32.9823 197.71 34.4213 195.849 35.8838C195.654 36.0362 195.411 36.1167 195.162 36.1115C194.912 36.1062 194.673 36.0155 194.484 35.855C194.296 35.6945 194.17 35.4743 194.129 35.2322C194.087 34.99 194.132 34.7412 194.257 34.5286V34.5286ZM115.51 173.193C115.633 172.983 115.826 172.822 116.056 172.735C116.285 172.649 116.539 172.644 116.772 172.72C117.006 172.796 117.206 172.949 117.338 173.153C117.471 173.357 117.528 173.6 117.5 173.841C117.28 175.621 117.111 177.44 116.962 179.224L116.834 180.846C116.828 180.987 116.792 181.125 116.731 181.252C116.669 181.38 116.582 181.493 116.475 181.587C116.367 181.68 116.242 181.752 116.107 181.797C115.971 181.842 115.828 181.86 115.685 181.849C115.542 181.839 115.403 181.8 115.276 181.736C115.148 181.671 115.035 181.583 114.944 181.474C114.852 181.366 114.783 181.241 114.741 181.106C114.699 180.971 114.685 180.83 114.699 180.689L114.836 179.052C114.991 177.243 115.174 175.408 115.385 173.602C115.398 173.459 115.44 173.32 115.51 173.193V173.193ZM110.536 187.321C110.629 187.165 110.761 187.034 110.92 186.942C113.008 185.732 115.132 184.566 117.239 183.471C117.491 183.341 117.785 183.314 118.056 183.397C118.327 183.48 118.554 183.666 118.686 183.914C118.818 184.162 118.845 184.452 118.761 184.719C118.677 184.987 118.488 185.21 118.236 185.34C117.328 185.814 116.411 186.299 115.499 186.799C115.764 186.832 116.007 186.961 116.18 187.161C116.353 187.362 116.444 187.618 116.435 187.881C116.355 190.25 116.322 192.617 116.342 194.921C116.345 195.201 116.234 195.47 116.035 195.67C115.836 195.869 115.564 195.983 115.28 195.985C114.996 195.988 114.722 195.879 114.52 195.682C114.317 195.486 114.202 195.218 114.2 194.938C114.18 192.606 114.212 190.206 114.296 187.808C114.302 187.669 114.334 187.533 114.392 187.407C113.595 187.851 112.798 188.302 112.008 188.762C111.804 188.882 111.565 188.932 111.329 188.903C111.093 188.874 110.874 188.769 110.705 188.604C110.536 188.439 110.428 188.223 110.398 187.991C110.367 187.759 110.416 187.523 110.536 187.321V187.321ZM205.81 26.1209C205.891 25.984 206.002 25.8668 206.135 25.778C208.118 24.4458 210.161 23.1362 212.179 21.877C212.298 21.8033 212.431 21.7534 212.57 21.7302C212.708 21.707 212.85 21.7109 212.987 21.7418C213.125 21.7727 213.254 21.8298 213.369 21.9101C213.484 21.9903 213.581 22.0921 213.656 22.2095C213.731 22.3269 213.782 22.4577 213.805 22.5944C213.829 22.7311 213.825 22.871 213.793 23.0062C213.762 23.1413 213.704 23.2691 213.622 23.3822C213.541 23.4952 213.438 23.5914 213.319 23.6652C211.311 24.906 209.304 26.2036 207.341 27.5228C207.141 27.6589 206.899 27.7235 206.656 27.706C206.414 27.6886 206.184 27.59 206.006 27.4267C205.827 27.2634 205.711 27.0451 205.675 26.8077C205.639 26.5703 205.687 26.328 205.81 26.1209V26.1209ZM123.25 180.742C123.359 180.554 123.525 180.404 123.725 180.314C125.929 179.307 128.163 178.375 130.379 177.488C130.511 177.427 130.654 177.393 130.8 177.389C130.946 177.384 131.091 177.409 131.227 177.462C131.363 177.514 131.486 177.594 131.589 177.695C131.693 177.797 131.774 177.918 131.828 178.052C131.883 178.185 131.908 178.328 131.904 178.472C131.901 178.616 131.867 178.757 131.805 178.888C131.744 179.018 131.656 179.135 131.547 179.231C131.438 179.326 131.311 179.399 131.172 179.445C129.012 180.314 126.794 181.239 124.632 182.217C124.426 182.311 124.195 182.337 123.972 182.293C123.75 182.248 123.547 182.135 123.394 181.97C123.241 181.805 123.145 181.596 123.12 181.374C123.095 181.152 123.143 180.927 123.256 180.733L123.25 180.742ZM114.568 201.481C114.683 201.284 114.86 201.128 115.072 201.038C115.284 200.948 115.52 200.928 115.744 200.981C115.969 201.033 116.17 201.156 116.318 201.331C116.466 201.505 116.553 201.722 116.565 201.949C116.696 204.312 116.885 206.671 117.134 208.959C117.162 209.238 117.077 209.516 116.897 209.733C116.717 209.95 116.457 210.087 116.174 210.115C115.892 210.143 115.609 210.059 115.389 209.882C115.169 209.704 115.03 209.448 115.002 209.17C114.754 206.846 114.562 204.448 114.426 202.054C114.417 201.853 114.466 201.654 114.568 201.481V201.481ZM136.594 175.494C136.724 175.269 136.934 175.099 137.183 175.017C139.49 174.256 141.825 173.56 144.124 172.953C144.261 172.911 144.406 172.897 144.549 172.912C144.692 172.926 144.83 172.969 144.956 173.037C145.082 173.106 145.193 173.199 145.281 173.31C145.37 173.422 145.435 173.55 145.472 173.687C145.51 173.824 145.519 173.966 145.499 174.107C145.479 174.247 145.431 174.382 145.357 174.504C145.283 174.625 145.185 174.731 145.069 174.814C144.953 174.898 144.82 174.957 144.68 174.989C142.424 175.588 140.129 176.271 137.863 177.018C137.657 177.087 137.434 177.091 137.224 177.031C137.015 176.971 136.829 176.85 136.692 176.683C136.554 176.516 136.472 176.312 136.455 176.098C136.439 175.884 136.489 175.67 136.599 175.485L136.594 175.494ZM116.092 215.563C116.172 215.428 116.281 215.312 116.411 215.223C116.542 215.135 116.691 215.076 116.847 215.051C117.127 215.006 117.414 215.072 117.644 215.236C117.875 215.399 118.03 215.646 118.076 215.922C118.46 218.259 118.913 220.578 119.422 222.815C119.46 222.953 119.47 223.096 119.45 223.238C119.43 223.379 119.382 223.515 119.307 223.637C119.233 223.759 119.134 223.866 119.016 223.949C118.899 224.033 118.766 224.092 118.625 224.123C118.484 224.155 118.337 224.158 118.195 224.132C118.053 224.106 117.917 224.052 117.797 223.973C117.676 223.894 117.573 223.792 117.494 223.672C117.414 223.553 117.36 223.419 117.335 223.279C116.814 220.998 116.343 218.648 115.96 216.26C115.916 216.019 115.958 215.77 116.08 215.556L116.092 215.563ZM150.469 171.833C150.544 171.703 150.646 171.591 150.769 171.503C150.891 171.415 151.032 171.354 151.18 171.324C153.568 170.853 155.978 170.464 158.343 170.166C158.486 170.141 158.632 170.144 158.774 170.176C158.915 170.209 159.049 170.269 159.166 170.353C159.283 170.438 159.381 170.545 159.455 170.668C159.529 170.791 159.577 170.928 159.595 171.07C159.614 171.212 159.603 171.356 159.563 171.494C159.523 171.631 159.456 171.759 159.364 171.871C159.273 171.982 159.159 172.073 159.03 172.139C158.902 172.206 158.761 172.246 158.616 172.257C156.294 172.558 153.94 172.93 151.599 173.392C151.396 173.433 151.185 173.416 150.992 173.342C150.799 173.268 150.632 173.14 150.511 172.974C150.39 172.809 150.321 172.612 150.311 172.408C150.301 172.204 150.352 172.002 150.456 171.826L150.469 171.833ZM119.227 229.361C119.332 229.182 119.487 229.037 119.675 228.944C119.863 228.851 120.074 228.815 120.282 228.839C120.491 228.864 120.687 228.948 120.847 229.082C121.007 229.215 121.124 229.392 121.183 229.591C121.862 231.856 122.619 234.092 123.437 236.237C123.537 236.5 123.527 236.79 123.409 237.045C123.292 237.3 123.076 237.499 122.81 237.597C122.544 237.695 122.249 237.685 121.99 237.569C121.732 237.453 121.53 237.241 121.43 236.979C120.594 234.786 119.821 232.5 119.128 230.191C119.086 230.053 119.074 229.908 119.091 229.766C119.108 229.623 119.154 229.486 119.227 229.361V229.361ZM164.691 170.044C164.781 169.892 164.908 169.764 165.06 169.672C165.213 169.58 165.386 169.527 165.565 169.518C167.999 169.391 170.441 169.361 172.828 169.426C172.972 169.425 173.115 169.452 173.248 169.507C173.381 169.561 173.501 169.641 173.602 169.742C173.703 169.843 173.782 169.964 173.834 170.096C173.887 170.228 173.912 170.369 173.908 170.51C173.904 170.652 173.871 170.792 173.811 170.921C173.751 171.05 173.666 171.165 173.559 171.261C173.453 171.357 173.328 171.43 173.193 171.477C173.057 171.524 172.913 171.544 172.769 171.535C170.438 171.473 168.054 171.503 165.676 171.626C165.392 171.641 165.114 171.543 164.904 171.356C164.693 171.169 164.566 170.906 164.551 170.627C164.54 170.423 164.588 170.221 164.691 170.044V170.044ZM124.297 242.617C124.408 242.431 124.573 242.281 124.771 242.189C124.899 242.13 125.037 242.097 125.177 242.091C125.318 242.085 125.458 242.106 125.591 242.153C125.723 242.201 125.844 242.274 125.948 242.367C126.052 242.461 126.136 242.574 126.195 242.7C126.699 243.8 127.25 244.871 127.81 245.926C128.335 246.928 128.893 247.929 129.465 248.902C129.535 249.022 129.581 249.154 129.599 249.292C129.617 249.429 129.608 249.569 129.571 249.703C129.535 249.837 129.472 249.962 129.386 250.072C129.3 250.182 129.193 250.274 129.071 250.344C128.95 250.413 128.815 250.458 128.675 250.476C128.536 250.494 128.394 250.484 128.258 250.448C128.123 250.412 127.995 250.35 127.884 250.266C127.772 250.181 127.678 250.076 127.608 249.956C127.021 248.955 126.448 247.929 125.903 246.898C125.357 245.868 124.778 244.704 124.253 243.592C124.18 243.437 124.146 243.267 124.154 243.097C124.162 242.927 124.212 242.761 124.299 242.614L124.297 242.617ZM179.036 170.443C179.14 170.265 179.295 170.121 179.481 170.029C179.667 169.937 179.876 169.9 180.084 169.923C182.499 170.191 184.918 170.567 187.265 171.036C187.544 171.092 187.788 171.255 187.945 171.488C188.102 171.722 188.158 172.007 188.101 172.281C188.045 172.556 187.88 172.797 187.643 172.951C187.406 173.106 187.116 173.161 186.838 173.105C184.543 172.645 182.189 172.278 179.838 172.019C179.699 172.003 179.563 171.96 179.44 171.893C179.317 171.826 179.209 171.736 179.121 171.627C179.034 171.519 178.969 171.394 178.93 171.261C178.891 171.128 178.879 170.988 178.895 170.851C178.912 170.705 178.96 170.565 179.038 170.44L179.036 170.443ZM131.494 254.855C131.571 254.725 131.675 254.613 131.8 254.525C131.915 254.444 132.045 254.386 132.183 254.355C132.321 254.324 132.464 254.32 132.604 254.344C132.743 254.368 132.876 254.418 132.996 254.493C133.116 254.568 133.219 254.665 133.3 254.78C134.662 256.674 136.14 258.525 137.673 260.269C137.857 260.482 137.949 260.759 137.926 261.039C137.904 261.318 137.77 261.578 137.554 261.76C137.337 261.942 137.056 262.032 136.773 262.01C136.489 261.988 136.226 261.856 136.041 261.643C134.463 259.849 132.95 257.945 131.527 255.987C131.408 255.821 131.341 255.625 131.333 255.422C131.325 255.219 131.376 255.018 131.481 254.843L131.494 254.855ZM193.093 173.275C193.215 173.069 193.403 172.91 193.628 172.823C193.853 172.735 194.101 172.726 194.332 172.795C196.667 173.495 198.955 174.335 201.186 175.31C201.447 175.424 201.652 175.636 201.755 175.898C201.857 176.161 201.85 176.453 201.735 176.711C201.619 176.968 201.404 177.17 201.138 177.271C200.871 177.373 200.575 177.365 200.314 177.252C198.163 176.31 195.957 175.499 193.706 174.824C193.571 174.784 193.446 174.718 193.337 174.63C193.228 174.542 193.137 174.433 193.071 174.311C193.005 174.188 192.963 174.054 192.95 173.916C192.936 173.778 192.95 173.638 192.991 173.506C193.017 173.424 193.052 173.346 193.095 173.272L193.093 173.275ZM140.889 265.55C140.93 265.478 140.981 265.411 141.039 265.351C141.234 265.149 141.503 265.031 141.787 265.023C142.07 265.016 142.345 265.119 142.551 265.311C144.263 266.912 146.057 268.426 147.927 269.845C148.039 269.93 148.134 270.036 148.205 270.157C148.276 270.278 148.322 270.411 148.34 270.55C148.359 270.689 148.349 270.829 148.313 270.964C148.276 271.099 148.213 271.226 148.127 271.337C148.04 271.448 147.933 271.541 147.81 271.611C147.687 271.681 147.552 271.726 147.411 271.744C147.271 271.763 147.128 271.754 146.991 271.717C146.854 271.681 146.725 271.619 146.613 271.534C144.685 270.071 142.834 268.511 141.069 266.86C140.891 266.694 140.777 266.473 140.745 266.234C140.712 265.996 140.764 265.753 140.891 265.547L140.889 265.55ZM206.21 178.989C206.352 178.747 206.586 178.57 206.86 178.498C207.135 178.426 207.427 178.464 207.673 178.604C209.771 179.822 211.799 181.154 213.747 182.593C213.861 182.677 213.957 182.781 214.029 182.901C214.101 183.021 214.149 183.154 214.17 183.292C214.19 183.43 214.183 183.571 214.148 183.706C214.113 183.841 214.052 183.968 213.967 184.08C213.882 184.192 213.776 184.286 213.655 184.358C213.533 184.429 213.398 184.476 213.258 184.496C213.118 184.516 212.975 184.509 212.838 184.475C212.701 184.44 212.572 184.38 212.458 184.297C210.571 182.904 208.608 181.614 206.577 180.434C206.457 180.363 206.352 180.269 206.268 180.157C206.185 180.046 206.124 179.919 206.09 179.785C206.056 179.65 206.049 179.51 206.07 179.373C206.091 179.236 206.139 179.104 206.211 178.986L206.21 178.989ZM152.27 274.155L152.282 274.134C152.43 273.895 152.668 273.724 152.943 273.658C153.218 273.592 153.509 273.636 153.752 273.781C154.129 273.996 154.502 274.209 154.876 274.422C156.547 275.376 158.267 276.255 159.995 277.033C160.123 277.091 160.239 277.174 160.335 277.276C160.431 277.378 160.506 277.498 160.555 277.628C160.604 277.759 160.627 277.897 160.622 278.036C160.616 278.176 160.583 278.312 160.524 278.439C160.465 278.565 160.382 278.679 160.278 278.774C160.175 278.869 160.053 278.942 159.921 278.991C159.789 279.039 159.648 279.061 159.507 279.056C159.365 279.051 159.227 279.018 159.098 278.96C157.311 278.156 155.528 277.245 153.798 276.258C153.412 276.038 153.023 275.816 152.636 275.596C152.395 275.451 152.22 275.219 152.152 274.948C152.084 274.678 152.127 274.392 152.272 274.152L152.27 274.155ZM217.702 187.454C217.743 187.386 217.791 187.322 217.846 187.264C218.04 187.06 218.307 186.94 218.591 186.93C218.874 186.92 219.15 187.021 219.357 187.212C221.139 188.847 222.831 190.574 224.426 192.387C224.518 192.493 224.587 192.615 224.631 192.747C224.675 192.879 224.692 193.019 224.681 193.158C224.67 193.296 224.631 193.431 224.567 193.555C224.503 193.679 224.415 193.79 224.308 193.88C224.201 193.971 224.076 194.039 223.942 194.082C223.808 194.125 223.666 194.142 223.526 194.131C223.385 194.12 223.248 194.082 223.122 194.019C222.996 193.956 222.884 193.869 222.793 193.764C221.253 192.009 219.619 190.337 217.899 188.753C217.722 188.591 217.606 188.374 217.57 188.138C217.534 187.902 217.581 187.661 217.702 187.454V187.454ZM165.321 280.014C165.444 279.807 165.634 279.648 165.861 279.561C166.088 279.475 166.337 279.467 166.569 279.54C168.81 280.235 171.093 280.789 173.405 281.199C173.667 281.267 173.893 281.43 174.038 281.655C174.183 281.88 174.236 282.151 174.186 282.413C174.137 282.675 173.989 282.909 173.771 283.068C173.554 283.227 173.284 283.298 173.015 283.269C170.611 282.843 168.238 282.266 165.909 281.541C165.639 281.457 165.413 281.27 165.282 281.023C165.151 280.775 165.125 280.486 165.209 280.219C165.239 280.147 165.276 280.078 165.321 280.014V280.014ZM227.09 198.145C227.169 198.01 227.278 197.894 227.408 197.807C227.524 197.728 227.655 197.672 227.792 197.643C227.93 197.614 228.072 197.612 228.211 197.637C228.349 197.662 228.482 197.713 228.6 197.789C228.718 197.864 228.82 197.962 228.9 198.076C230.289 200.051 231.563 202.102 232.715 204.219C232.784 204.342 232.826 204.476 232.842 204.615C232.857 204.754 232.844 204.894 232.803 205.028C232.763 205.162 232.696 205.286 232.607 205.394C232.517 205.503 232.407 205.592 232.282 205.658C232.157 205.724 232.02 205.765 231.879 205.778C231.739 205.791 231.596 205.777 231.461 205.736C231.326 205.695 231.2 205.628 231.091 205.538C230.982 205.449 230.893 205.339 230.827 205.215C229.714 203.17 228.485 201.188 227.146 199.279C227.028 199.115 226.96 198.921 226.95 198.72C226.94 198.519 226.989 198.32 227.09 198.145V198.145ZM179.423 282.49C179.521 282.323 179.664 282.186 179.835 282.093C180.007 282 180.201 281.956 180.396 281.964C182.74 282.064 185.089 282.001 187.424 281.774C187.702 281.755 187.976 281.844 188.188 282.021C188.401 282.198 188.535 282.45 188.563 282.723C188.59 282.996 188.508 283.269 188.335 283.484C188.162 283.698 187.911 283.838 187.634 283.873C185.201 284.115 182.753 284.189 180.309 284.093C180.03 284.077 179.767 283.954 179.579 283.75C179.39 283.546 179.29 283.277 179.301 283.001C179.295 282.824 179.337 282.649 179.422 282.493L179.423 282.49ZM233.847 210.608C233.967 210.399 234.157 210.239 234.385 210.155C234.649 210.053 234.943 210.06 235.203 210.172C235.462 210.284 235.666 210.493 235.769 210.753C236.66 212.992 237.404 215.285 237.999 217.617C238.058 217.885 238.009 218.165 237.862 218.398C237.716 218.631 237.483 218.798 237.214 218.865C236.944 218.932 236.659 218.893 236.418 218.756C236.177 218.619 235.999 218.396 235.923 218.132C235.35 215.886 234.633 213.678 233.776 211.522C233.717 211.374 233.693 211.215 233.705 211.057C233.717 210.898 233.766 210.745 233.847 210.608ZM193.68 281.107C193.753 280.983 193.851 280.875 193.968 280.789C194.085 280.704 194.218 280.642 194.36 280.609C196.649 280.077 198.904 279.408 201.112 278.608C201.245 278.552 201.388 278.524 201.533 278.524C201.678 278.525 201.821 278.555 201.954 278.611C202.087 278.668 202.207 278.751 202.306 278.855C202.406 278.958 202.483 279.081 202.533 279.215C202.583 279.349 202.605 279.491 202.598 279.634C202.59 279.777 202.553 279.916 202.49 280.044C202.426 280.172 202.336 280.287 202.227 280.38C202.117 280.473 201.989 280.543 201.851 280.586C199.565 281.419 197.229 282.113 194.856 282.664C194.656 282.706 194.447 282.689 194.256 282.617C194.064 282.545 193.898 282.42 193.776 282.257C193.654 282.095 193.583 281.901 193.57 281.699C193.556 281.498 193.602 281.296 193.702 281.12L193.68 281.107ZM237.311 224.301C237.424 224.109 237.596 223.958 237.801 223.867C238.007 223.777 238.236 223.753 238.456 223.799C238.677 223.844 238.877 223.957 239.028 224.121C239.18 224.285 239.275 224.492 239.3 224.712C239.571 227.11 239.67 229.524 239.595 231.936C239.596 232.078 239.568 232.219 239.512 232.35C239.457 232.481 239.375 232.6 239.272 232.699C239.169 232.799 239.047 232.876 238.912 232.928C238.778 232.979 238.635 233.004 238.49 232.999C238.346 232.995 238.205 232.962 238.074 232.902C237.943 232.842 237.826 232.757 237.729 232.652C237.632 232.546 237.558 232.423 237.511 232.288C237.464 232.154 237.445 232.012 237.456 231.87C237.527 229.559 237.433 227.245 237.175 224.947C237.151 224.725 237.198 224.502 237.31 224.309L237.311 224.301ZM207.137 276.22C207.241 276.044 207.395 275.902 207.58 275.81C209.676 274.755 211.707 273.58 213.664 272.29C213.781 272.208 213.913 272.15 214.053 272.119C214.193 272.089 214.338 272.086 214.479 272.112C214.62 272.137 214.754 272.19 214.874 272.268C214.993 272.346 215.096 272.446 215.176 272.564C215.255 272.681 215.31 272.813 215.337 272.952C215.364 273.091 215.362 273.234 215.332 273.372C215.302 273.51 215.244 273.641 215.161 273.756C215.079 273.872 214.974 273.97 214.852 274.045C212.826 275.381 210.722 276.597 208.551 277.689C208.345 277.793 208.11 277.828 207.882 277.79C207.654 277.751 207.445 277.641 207.286 277.476C207.127 277.31 207.027 277.099 207 276.872C206.973 276.646 207.021 276.417 207.137 276.22V276.22ZM219.051 268.356C219.113 268.253 219.191 268.16 219.282 268.081C221.065 266.571 222.752 264.954 224.332 263.24C224.424 263.128 224.538 263.037 224.666 262.97C224.795 262.904 224.936 262.864 225.081 262.853C225.226 262.842 225.372 262.86 225.509 262.907C225.647 262.953 225.773 263.026 225.881 263.122C225.989 263.218 226.076 263.335 226.136 263.465C226.197 263.595 226.23 263.736 226.234 263.879C226.237 264.023 226.211 264.165 226.157 264.298C226.103 264.431 226.022 264.552 225.919 264.653C224.281 266.436 222.531 268.116 220.68 269.683C220.488 269.848 220.243 269.941 219.988 269.944C219.733 269.947 219.486 269.86 219.29 269.7C219.094 269.539 218.963 269.315 218.92 269.067C218.877 268.82 218.924 268.566 219.054 268.35L219.051 268.356ZM236.841 238.429C236.969 238.216 237.168 238.053 237.405 237.97C237.641 237.887 237.9 237.889 238.135 237.975C238.371 238.061 238.568 238.226 238.693 238.44C238.818 238.655 238.862 238.906 238.818 239.15C238.385 241.524 237.779 243.863 237.004 246.15C236.959 246.282 236.889 246.403 236.796 246.508C236.704 246.612 236.592 246.698 236.466 246.76C236.34 246.822 236.203 246.858 236.062 246.868C235.922 246.878 235.781 246.86 235.648 246.816C235.515 246.772 235.391 246.702 235.285 246.611C235.179 246.52 235.092 246.41 235.03 246.286C234.967 246.161 234.929 246.026 234.92 245.888C234.91 245.75 234.928 245.611 234.973 245.48C235.715 243.29 236.296 241.05 236.711 238.777C236.732 238.654 236.776 238.536 236.841 238.429V238.429ZM228.65 257.903L228.695 257.827C230.026 255.924 231.224 253.933 232.28 251.869C232.343 251.745 232.431 251.634 232.537 251.544C232.644 251.453 232.767 251.384 232.901 251.34C233.035 251.296 233.176 251.279 233.316 251.289C233.457 251.299 233.594 251.336 233.72 251.398C233.846 251.46 233.958 251.546 234.05 251.651C234.142 251.756 234.213 251.878 234.257 252.01C234.301 252.142 234.319 252.281 234.309 252.419C234.299 252.558 234.261 252.693 234.198 252.817C233.097 254.969 231.848 257.045 230.459 259.028C230.308 259.265 230.067 259.433 229.789 259.495C229.512 259.557 229.221 259.507 228.981 259.358C228.741 259.208 228.571 258.971 228.508 258.698C228.445 258.425 228.495 258.138 228.647 257.901L228.65 257.903Z" fill="#E8E8E8"/>
<path d="M6.17451 327.958C6.30531 327.71 6.53102 327.522 6.802 327.437C7.07298 327.353 7.36703 327.377 7.61947 327.506C7.8719 327.635 8.06205 327.858 8.14807 328.125C8.23408 328.392 8.20892 328.682 8.07813 328.93L6.59906 332.151C6.54039 332.278 6.45695 332.392 6.35356 332.487C6.25017 332.581 6.12882 332.655 5.99646 332.704C5.86409 332.753 5.7233 332.775 5.58212 332.77C5.44093 332.765 5.30211 332.733 5.1736 332.675C5.04508 332.617 4.92942 332.535 4.83314 332.433C4.73686 332.331 4.66188 332.212 4.61249 332.081C4.56311 331.951 4.54028 331.812 4.54531 331.673C4.55034 331.534 4.58312 331.397 4.6418 331.27L6.12087 328.05L6.17451 327.958Z" fill="#E8E8E8"/>
</svg>
