<svg width="23" height="22" viewBox="0 0 23 22" fill="none" xmlns="http://www.w3.org/2000/svg">
<path d="M16.663 17.0026C16.2547 16.1005 15.9703 15.5328 15.8077 15.5728C15.6451 15.6128 15.6527 16.2413 15.8681 17.2352C15.9997 17.8181 16.166 18.392 16.3661 18.954C16.4805 19.2751 16.608 19.6072 16.7517 19.9477L16.9844 20.4716C17.0452 20.6414 17.1425 20.7952 17.2696 20.9228C17.3968 21.0504 17.5507 21.1487 17.7211 21.211C17.8887 21.2589 18.0676 21.259 18.2376 21.2115C18.3223 21.1864 18.405 21.1546 18.4849 21.1164L18.6594 21.0277C18.8177 20.9454 18.975 20.8689 19.1265 20.7915C19.4248 20.63 19.7162 20.4734 19.9914 20.3232C20.5454 20.0203 21.0314 19.7306 21.4447 19.4622C22.2473 18.9425 22.7143 18.5607 22.628 18.3956C22.5417 18.2305 21.9548 18.3706 21.049 18.6869C20.5955 18.8479 20.0677 19.0568 19.4836 19.2955C19.2136 19.4168 18.9275 19.5445 18.6321 19.6738C18.953 19.1642 19.2199 18.624 19.4284 18.062C19.6857 17.3776 19.8757 16.6715 19.9959 15.9538C20.1864 14.9374 20.2538 13.9049 20.1968 12.8786C20.0158 9.98663 18.902 7.25123 17.0191 5.07473C15.9903 3.87855 14.7655 2.86354 13.394 2.07051C12.0999 1.32011 10.681 0.796786 9.19808 0.522966C8.85089 0.460629 8.50033 0.415769 8.14773 0.388558C7.97382 0.376245 7.80676 0.359058 7.61464 0.364708C7.42251 0.370359 7.2602 0.35986 7.10053 0.36761C6.466 0.409846 5.83626 0.519749 5.22222 0.695413C4.19521 0.964605 3.21134 1.38515 2.30393 1.94282C0.791017 2.90148 0.170657 3.84504 0.24586 3.90733C0.321064 3.96962 1.08733 3.22426 2.61077 2.4694C3.4983 2.0251 4.43773 1.6962 5.40523 1.49101C5.9766 1.36999 6.55745 1.30637 7.1389 1.30113C7.28758 1.29904 7.43608 1.30439 7.58385 1.31715C7.73349 1.33162 7.89262 1.35946 8.05044 1.37817C8.36713 1.40982 8.6846 1.48619 9.00761 1.54856C10.3563 1.86277 11.6388 2.39456 12.8045 3.12293C14.0155 3.88066 15.0932 4.82668 15.9976 5.92587C17.6111 7.89389 18.5593 10.3233 18.7123 12.8814C18.8123 14.4488 18.6217 16.028 18.1501 17.5412C17.9278 18.2021 17.7398 18.7079 17.5922 19.0742L17.36 18.5801L16.648 17.0033" fill="#DBCECE"/>
</svg>
