<svg width="69" height="69" viewBox="0 0 69 69" fill="none" xmlns="http://www.w3.org/2000/svg">
<circle cx="34.5" cy="34.5" r="34.5" fill="url(#paint0_radial_72_4006)"/>
<path d="M25.5269 41.5709C25.2286 40.7889 25.1115 40.0386 25.1522 39.27C25.2312 37.7776 25.5879 36.3613 26.4073 35.0945C27.3155 33.6903 28.6034 32.8073 30.2328 32.444C30.6943 32.3411 31.1753 32.2698 31.6458 32.2776C32.2832 32.2882 32.8439 32.5261 33.187 33.1169C33.4423 33.5567 33.5123 34.0382 33.4664 34.5346C33.322 36.0914 32.3783 37.1314 31.1892 38.0015C30.6025 38.4307 29.9506 38.7443 29.2594 38.9654C29.0684 39.0266 28.9678 39.1129 28.9995 39.3068C29.0476 39.6002 29.0773 39.9038 29.1794 40.1791C29.2835 40.4598 29.5072 40.6118 29.8445 40.6219C30.5076 40.6418 31.1043 40.4409 31.6876 40.1632C32.6027 39.7276 33.2499 38.9959 33.845 38.2081C34.0551 37.9297 34.0274 37.5864 34.0616 37.2678C34.1805 36.159 34.2787 35.0479 34.3839 33.9376C34.4442 33.3009 34.5152 32.665 34.5554 32.027C34.5697 31.7991 34.6363 31.677 34.8656 31.6309C35.9325 31.4163 36.9974 31.1931 38.0637 30.9756C38.1272 30.9627 38.1958 30.974 38.3131 30.974C38.2913 31.2586 38.2751 31.5233 38.25 31.7872C38.2021 32.288 38.1493 32.7884 38.0979 33.289C37.9617 34.6148 37.8215 35.9401 37.6912 37.2664C37.6567 37.6185 37.6401 37.9734 37.6365 38.3271C37.6327 38.7049 37.8175 38.8225 38.1959 38.727C38.8972 38.5501 39.3353 38.0579 39.6921 37.4775C40.1523 36.7289 40.4715 35.9193 40.6309 35.055C40.7516 34.4004 40.8421 33.74 40.9356 33.0807C40.958 32.9228 40.939 32.7589 40.939 32.5616C40.795 32.5766 40.6851 32.5657 40.593 32.6011C39.8366 32.892 39.0315 31.9632 39.2622 31.1573C39.3922 30.7033 39.7055 30.4164 40.1258 30.2402C40.5307 30.0707 40.9498 29.957 41.3947 30.052C42.1041 30.2034 42.4361 30.7143 42.5777 31.365C42.8792 32.7491 42.7621 34.1239 42.4563 35.4949C42.1804 36.7313 41.7268 37.8845 40.9738 38.9127C39.9747 40.2769 38.646 41.0867 36.9753 41.3646C36.4056 41.4593 35.8608 41.422 35.3234 41.2475C34.8223 41.0847 34.4629 40.7418 34.2189 40.277C34.1755 40.1943 34.1329 40.1112 34.0698 39.9897C33.9248 40.148 33.7929 40.2782 33.6765 40.4211C33.02 41.2283 32.1788 41.788 31.2876 42.3079C29.9471 43.0899 28.4655 43.4058 26.9829 43.7292C26.1729 43.9058 25.3553 44.0539 24.5353 44.1756C23.8769 44.2731 23.2106 44.3446 22.5459 44.3643C22.0941 44.3777 21.8053 44.5193 21.5396 44.9042C20.9454 45.7657 20.3072 46.5999 19.6462 47.4121C18.8592 48.3791 17.8781 49.1031 16.7141 49.571C12.6034 51.2843 7.98452 49.9424 8.66057 45.7528C9.24209 43.3338 10.7716 41.7779 13.0809 40.9649C14.5298 40.4548 16.0343 40.3598 17.5574 40.5019C17.666 40.5121 17.7752 40.5164 17.8841 40.52C18.3594 40.5361 18.387 40.5159 18.4201 40.0335C18.4349 39.8162 18.4296 39.597 18.4224 39.379C18.403 38.8074 18.3775 38.236 18.3548 37.6645C18.2973 36.2217 18.2468 34.7785 18.1794 33.3362C18.1554 32.8202 18.0984 32.3051 18.0421 31.7912C18.0049 31.451 17.9936 31.4496 17.6345 31.447C17.0754 31.4429 16.5133 31.4788 15.9575 31.4342C14.6863 31.3326 13.6258 30.8422 13.0732 29.6121C12.6928 28.7655 12.7896 27.9114 13.1911 27.0868C13.2206 27.0261 13.2638 26.9715 13.3056 26.9177C13.5999 26.5388 13.9473 26.4611 14.3332 26.7368C14.6868 26.9894 15.0057 27.2902 15.3454 27.563C15.8243 27.9475 16.3442 28.2202 16.9882 28.1724C17.4779 28.1361 17.6153 28.0369 17.6842 27.558C17.8082 26.6963 17.8944 25.8286 18.037 24.9703C18.3188 23.2744 18.775 21.6413 19.9414 20.3055C20.7809 19.3441 21.8271 18.7232 23.1053 18.615C24.1851 18.5237 25.0939 18.9683 25.7255 19.8422C26.9188 21.4937 27.0192 23.2604 26.1431 25.0883C25.7445 25.9199 25.1231 26.5974 24.5656 27.3178C24.0574 27.9746 23.5226 28.6112 23.025 29.2758C22.7314 29.6677 22.4701 30.0986 22.4323 30.6008C22.4051 30.9631 22.4431 31.3326 22.477 31.6967C22.573 32.7258 22.6687 33.7553 22.7895 34.7817C22.8867 35.6079 22.9776 36.4327 22.9321 37.2657C22.8913 38.0131 22.848 38.7603 22.7932 39.5066C22.7503 40.0898 22.6885 40.6716 22.634 41.2538C22.6207 41.3951 22.6596 41.4932 22.8177 41.5157C22.8984 41.5272 22.9769 41.5682 23.0566 41.5686C23.8586 41.5723 24.6607 41.5709 25.5269 41.5709ZM17.8521 43.9321C16.9504 43.7434 16.0593 43.6419 15.165 43.7578C14.7413 43.8126 14.3293 43.9765 13.9197 44.1144C13.6631 44.2009 13.4227 44.3341 13.1724 44.4404C12.5663 44.6979 12.1489 45.1581 11.8576 45.7256C11.4612 46.4973 11.9053 47.3308 12.7551 47.4969C13.627 47.6673 14.4425 47.4888 15.1947 47.0723C16.4015 46.4044 17.2296 45.376 17.8105 44.1391C17.8374 44.0822 17.8368 44.0126 17.8521 43.9321ZM21.9407 25.6936C22.1579 25.4076 22.3517 25.1653 22.5317 24.9133C23.0247 24.2234 23.4636 23.5023 23.6918 22.6768C23.8257 22.1925 23.8241 21.7083 23.5896 21.2456C23.4345 20.94 23.2097 20.873 22.9234 21.0711C22.8038 21.1538 22.6893 21.2669 22.6182 21.3921C22.4846 21.6276 22.342 21.8717 22.2784 22.1306C22.1265 22.7495 21.9879 23.3751 21.902 24.0058C21.8292 24.5399 21.7313 25.0864 21.9407 25.6936ZM29.0296 37.4906C29.062 37.5053 29.0744 37.5164 29.0847 37.5146C29.1242 37.5078 29.166 37.5035 29.2017 37.4869C29.994 37.1149 30.5754 36.5219 30.9635 35.7467C31.22 35.2342 31.2853 34.6819 31.1566 34.12C31.0909 33.8337 30.9804 33.7887 30.7151 33.9028C30.4307 34.025 30.2273 34.2405 30.0577 34.4931C29.4467 35.4032 29.2046 36.4369 29.0296 37.4906Z" fill="#284795"/>
<path d="M53.4056 27.8296C53.4056 28.0106 53.4056 28.1303 53.4056 28.2958C53.504 28.2326 53.5801 28.1931 53.6456 28.1401C54.3844 27.5431 55.2545 27.2384 56.1772 27.2194C57.5398 27.1915 58.4031 27.8199 58.5465 29.3093C58.6357 30.2365 58.4915 31.1571 58.3557 32.0745C58.2779 32.5994 58.1695 33.128 58.1724 33.6543C58.1766 34.4152 58.3262 34.6217 59.1003 34.3988C59.3777 34.3189 59.6266 34.1394 59.8844 34.0074C60.1289 35.1555 59.4692 36.3463 58.3552 36.8384C57.8264 37.072 57.2751 37.1934 56.6881 37.1733C55.4845 37.1318 54.7925 36.2274 54.7107 35.2571C54.6444 34.4707 54.6911 33.6811 54.814 32.8938C54.9229 32.1964 54.9646 31.4878 55.0155 30.7827C55.0287 30.5982 54.9837 30.4028 54.9333 30.2214C54.8153 29.7949 54.5778 29.6918 54.1628 29.867C53.7893 30.0246 53.5669 30.3243 53.3862 30.672C53.0886 31.2447 53.0501 31.8709 52.9868 32.4932C52.8536 33.8058 52.7178 35.118 52.5886 36.4309C52.5485 36.8373 52.5315 37.2457 52.4947 37.6524C52.4619 38.0137 52.4064 38.0674 52.0635 38.139C51.0395 38.3529 50.0158 38.5688 48.9914 38.7809C48.928 38.794 48.8596 38.7827 48.7423 38.7827C48.7581 38.5876 48.7728 38.4078 48.7917 38.175C48.6558 38.2645 48.5529 38.3207 48.4632 38.3931C47.657 39.0453 46.7301 39.4326 45.7078 39.5279C44.5426 39.6365 43.5157 39.1309 43.2289 37.7453C43.1028 37.1359 43.1197 36.5316 43.217 35.9198C43.3493 35.0876 43.457 34.2515 43.5714 33.4166C43.5978 33.2233 43.6624 33.0988 43.884 33.0556C44.618 32.9125 45.3471 32.7454 46.0789 32.5915C46.4753 32.5081 46.8732 32.4324 47.3157 32.3443C47.3157 32.5295 47.3328 32.6766 47.3129 32.8186C47.1889 33.7076 47.0524 34.5948 46.9293 35.4837C46.8866 35.7925 46.8476 36.1048 46.8477 36.4156C46.8481 36.7819 46.9663 36.8755 47.3305 36.8413C47.883 36.7895 48.2934 36.4906 48.6212 36.0632C48.9289 35.662 49.0767 35.1968 49.1288 34.7022C49.2401 33.6471 49.3461 32.5913 49.4434 31.5349C49.5143 30.7629 49.5664 29.9891 49.6301 29.2164C49.6413 29.0812 49.6789 28.948 49.6866 28.813C49.6982 28.6052 49.8311 28.5413 50.0053 28.506C51.0053 28.3032 52.0046 28.0977 53.0044 27.8946C53.1222 27.8709 53.2419 27.8561 53.4056 27.8296Z" fill="#284795"/>
<path d="M42.9069 24.1485C42.7877 24.0622 42.6228 23.9909 42.6286 23.9382C42.6467 23.7748 42.6853 23.561 42.7983 23.4741C42.9388 23.3662 42.9863 23.2684 42.9934 23.11C42.9993 22.9748 43.0498 22.8402 43.0461 22.7061C43.0372 22.3946 43.1884 22.249 43.4804 22.1723C43.8715 22.0697 44.2527 21.9286 44.6986 21.7845C44.6532 22.2361 44.6137 22.6319 44.5718 23.0494C44.7552 23.0237 44.8984 23.0036 45.0397 22.9839C45.1352 23.3841 45.0965 23.4943 44.7674 23.6102C44.5771 23.6773 44.5182 23.8093 44.5002 23.9785C44.4582 24.3708 44.4235 24.7639 44.3871 25.1569C44.3619 25.4277 44.3295 25.6984 44.3172 25.97C44.3034 26.2775 44.4453 26.3635 44.7205 26.2249C44.9663 26.101 45.0657 25.9036 45.0488 25.6245C45.0044 24.8967 45.1809 24.2171 45.559 23.5962C46.0276 22.8271 46.7498 22.4493 47.6212 22.3722C48.0546 22.3338 48.418 22.5248 48.6192 22.9444C48.6774 23.0657 48.7324 23.1884 48.7869 23.3062C49.2851 23.2304 49.3362 23.175 49.3804 22.7421C49.4025 22.5258 49.4091 22.2965 49.4888 22.1001C49.5896 21.8515 49.8769 21.9688 50.0734 21.8957C50.3129 21.8066 50.5741 21.7676 50.8294 21.7349C50.9067 21.7249 50.9959 21.8073 51.1074 21.8607C51.2977 21.7642 51.5324 21.6294 51.7796 21.524C52.0935 21.3901 52.3712 21.4926 52.5984 21.7234C52.7626 21.89 52.7847 22.2307 52.6709 22.4553C52.5553 22.6837 52.1225 22.9721 51.8994 22.9058C51.7213 22.8529 51.574 22.6966 51.3848 22.5667C51.0293 22.6721 50.9628 22.7568 50.9272 23.1558C50.852 23.9961 50.7704 24.8357 50.6946 25.676C50.6818 25.8173 50.6718 25.9644 50.507 26.0013C50.0474 26.1039 49.5853 26.1941 49.0691 26.3006C49.1418 25.4619 49.2093 24.6836 49.2768 23.9025C48.8439 23.954 48.83 23.9704 48.8116 24.3974C48.7719 25.3193 48.393 26.066 47.5926 26.5369C46.898 26.9453 46.1621 27.0397 45.3477 26.5467C45.3082 26.6085 45.2633 26.7104 45.1907 26.7855C44.9221 27.0629 44.6137 27.2765 44.2366 27.3925C43.5579 27.601 43.244 27.5196 42.7759 26.9618C42.6616 27.0766 42.5502 27.1907 42.4364 27.302C41.8098 27.9141 41.0649 28.2187 40.1832 28.173C39.6781 28.1469 39.2668 27.8211 39.1613 27.3266C39.0877 26.9818 39.0089 26.6319 39.1215 26.2764C39.1363 26.2296 39.1236 26.1741 39.1236 26.1209C38.8066 26.0912 38.8248 26.2977 38.8211 26.4906C38.8103 27.0655 38.6429 27.5918 38.3004 28.0532C37.7294 28.8226 36.9565 29.1249 36.0138 28.9978C35.3867 28.9131 35.1271 28.4881 35.075 28.0119C34.9555 26.9203 35.1962 25.9173 36.063 25.1588C36.5768 24.7092 37.1843 24.4962 37.8747 24.5645C38.2685 24.6036 38.517 24.8317 38.6612 25.1885C38.7014 25.288 38.7419 25.3874 38.7814 25.4848C39.1421 25.4269 39.3821 25.2591 39.5562 24.9394C39.9383 24.2377 40.5603 23.8351 41.3387 23.7049C41.5959 23.6619 41.8818 23.6956 42.1373 23.7612C42.4049 23.8301 42.5888 24.1895 42.5743 24.4803C42.5594 24.7778 42.3701 25.0161 42.0742 25.1093C41.7345 25.2164 41.5842 25.0948 41.5876 24.743C41.5885 24.6362 41.5217 24.5287 41.4861 24.4216C41.374 24.4829 41.2128 24.5166 41.1593 24.6112C41.0265 24.8455 40.9097 25.0999 40.8465 25.3608C40.7313 25.8355 40.631 26.3198 40.777 26.8106C40.8538 27.0689 40.9238 27.124 41.1844 27.0966C41.8639 27.0253 42.3273 26.6279 42.6869 26.0817C42.7156 26.0381 42.7324 25.9812 42.7378 25.9287C42.7961 25.3742 42.8514 24.8193 42.9061 24.2642C42.9114 24.2113 42.9069 24.1577 42.9069 24.1485ZM46.669 25.0209C46.6809 25.1467 46.6788 25.2987 46.7123 25.4424C46.802 25.8265 47.0788 25.9092 47.3519 25.6166C47.4855 25.4734 47.5699 25.2762 47.6473 25.0912C47.7094 24.9428 47.7188 24.7733 47.7675 24.6181C47.8251 24.4349 47.8231 24.2856 47.6636 24.1416C47.4684 23.9654 47.46 23.7391 47.5692 23.506C47.5979 23.4447 47.6428 23.3839 47.647 23.3205C47.651 23.2617 47.6246 23.187 47.5847 23.1444C47.5612 23.1192 47.466 23.1215 47.4365 23.1483C47.2979 23.2739 47.1288 23.3912 47.0477 23.5506C46.8183 24.0011 46.6998 24.4891 46.669 25.0209ZM36.6971 27.1768C36.6971 27.2994 36.6707 27.4299 36.7041 27.5426C36.7434 27.6751 36.8091 27.859 36.9104 27.8978C37.0198 27.9399 37.1927 27.8583 37.3204 27.7956C37.3966 27.7581 37.4658 27.661 37.4927 27.5765C37.5992 27.241 37.6918 26.9009 37.7789 26.5598C37.7928 26.5056 37.7726 26.4127 37.7331 26.3799C37.4335 26.132 37.4479 25.8528 37.6185 25.5418C37.6442 25.495 37.6426 25.3959 37.6108 25.3646C37.5727 25.3272 37.4632 25.3046 37.4288 25.3317C37.2941 25.4379 37.1393 25.5455 37.0599 25.6898C36.8075 26.1491 36.6778 26.6474 36.6971 27.1768Z" fill="#284795"/>
<path d="M30.6437 25.0747C29.8955 25.6734 29.766 26.2862 30.1412 27.2934C29.7642 27.3765 29.3805 27.4652 29.0559 27.2324C28.7425 27.0077 28.6988 26.6364 28.7794 26.2681C28.8661 25.8723 29.063 25.5264 29.3468 25.2444C30.3817 24.2158 31.6248 23.6518 33.0937 23.7638C34.083 23.8391 34.6425 24.356 34.8808 25.392C35.1692 26.6457 34.9097 27.8344 34.2215 28.9066C33.8175 29.5361 33.2409 29.9693 32.4394 29.9658C32.2516 29.965 32.0642 29.9139 31.8666 29.8845C31.4023 30.296 30.7802 30.2153 30.1801 30.3976C30.0925 29.7684 30.2958 29.2043 30.3141 28.6297C30.3327 28.0469 30.4166 27.4663 30.4719 26.8846C30.5267 26.305 30.5818 25.7258 30.6437 25.0747ZM32.2118 24.5048C32.2373 24.581 32.2634 24.6197 32.2602 24.6558C32.2 25.333 32.1373 26.01 32.0734 26.6869C32.0082 27.3776 31.9348 28.0675 31.878 28.7589C31.8516 29.0821 31.9589 29.1576 32.2658 29.0539C32.6249 28.9325 32.8451 28.6621 33.008 28.3348C33.1988 27.9514 33.255 27.5333 33.3432 27.1203C33.4844 26.4597 33.3964 25.8168 33.2417 25.1793C33.1275 24.7083 32.7547 24.4055 32.2966 24.4237C31.8235 24.4424 31.3806 24.5992 30.9874 24.8897C31.3939 24.7621 31.8003 24.6342 32.2118 24.5048Z" fill="#284795"/>
<path d="M47.6648 30.4511C47.6859 30.9664 47.4688 31.3942 47.0965 31.7121C46.4222 32.2878 45.6645 32.5559 44.7569 32.2818C43.9366 32.0342 43.3081 31.1166 43.74 30.1447C44.2815 28.9258 46.0743 28.3588 47.1534 29.3025C47.4899 29.5969 47.6682 29.9766 47.6648 30.4511Z" fill="#284795"/>
<path d="M39.3193 60.4534L35.489 57.7105L38.6185 55.2697L38.2923 53.2155L35.2231 56.5746L35.7065 45.8206L31.7915 45.2285L32.8186 62L34.9936 61.7583L35.0902 59.6438L37.5914 61.8792L39.3193 60.4534Z" fill="#DE358A"/>
<path d="M39.9839 52.8288L40.866 60.695L43.4276 60.0184L43.4518 52.0918L39.9839 52.8288ZM42.8356 49.216C42.8356 49.6993 42.6825 50.1101 42.3764 50.4485C42.0703 50.7868 41.7038 50.956 41.2768 50.956C40.8499 50.956 40.4834 50.7868 40.1772 50.4485C39.8711 50.1101 39.7181 49.6993 39.7181 49.216C39.7181 48.7407 39.8711 48.3339 40.1772 47.9956C40.4834 47.6572 40.8499 47.4881 41.2768 47.4881C41.7038 47.4881 42.0703 47.6572 42.3764 47.9956C42.6825 48.3339 42.8356 48.7407 42.8356 49.216Z" fill="#DE358A"/>
<path d="M48.5267 58.8584C47.6729 58.7053 47.3748 57.9078 47.6326 56.4659C47.7534 55.7651 47.9991 55.2495 48.3697 54.9192C48.6999 54.6131 49.0705 54.4963 49.4813 54.5688C50.3271 54.7219 50.6252 55.5194 50.3755 56.9613C50.2466 57.6621 50.0009 58.1817 49.6384 58.52C49.3081 58.8181 48.9376 58.9309 48.5267 58.8584ZM50.9192 46.8356L50.75 53.0584C49.7028 52.7845 48.8449 52.6718 48.1763 52.7201C46.9438 52.8248 45.9208 53.2961 45.1072 54.1338C44.3016 54.9797 43.9432 55.9503 44.0318 57.0459C44.1204 58.1334 44.6319 59.0275 45.5664 59.7284C46.5008 60.4292 47.5842 60.7313 48.8167 60.6346C49.2115 60.6024 49.6062 60.5218 50.0009 60.3929L49.9405 60.9729L52.9009 62L54.2058 46.5698L50.9192 46.8356Z" fill="#DE358A"/>
<path d="M62.5916 57.348C62.4708 56.9532 62.1606 56.5545 61.6612 56.1517C61.3551 55.902 60.8395 55.5516 60.1145 55.1005C59.2123 54.5447 58.733 54.1943 58.6766 54.0493C58.6686 53.8559 58.7008 53.727 58.7733 53.6626C58.9586 53.4934 59.3573 53.5055 59.9695 53.6988L60.7187 53.9768L61.2262 54.1701L61.4074 53.8801L62.7003 51.8743L62.3741 51.6326C61.8263 51.2218 60.9241 50.9761 59.6675 50.8955C58.5477 50.8311 57.6737 50.8996 57.0454 51.101C55.8693 51.4715 55.1886 52.1361 55.0033 53.0947C54.9953 53.1672 54.9872 53.2397 54.9792 53.3122C54.9228 53.8922 55.0799 54.452 55.4504 54.9917C55.821 55.5315 56.3526 55.9745 57.0454 56.3209L57.4321 56.5142C59.0673 57.2956 59.897 57.8434 59.9212 58.1575C59.9373 58.1575 59.9051 58.1857 59.8245 58.2421C59.7118 58.3227 59.5587 58.3952 59.3654 58.4596C58.874 58.6449 58.2698 58.6328 57.5529 58.4234C56.844 58.2139 56.3687 57.9118 56.1271 57.5171L55.68 56.7921L54.8463 59.2209L54.9913 59.4142C55.5229 60.1231 56.55 60.5621 58.0725 60.7313C59.595 60.9004 60.7952 60.7111 61.6733 60.1634C62.1646 59.8572 62.4869 59.4625 62.6399 58.9792C62.801 58.4878 62.7849 57.9441 62.5916 57.348Z" fill="#DE358A"/>
<defs>
<radialGradient id="paint0_radial_72_4006" cx="0" cy="0" r="1" gradientUnits="userSpaceOnUse" gradientTransform="translate(34.5 34.5) rotate(90) scale(34.5)">
<stop offset="0.633532" stop-color="white"/>
<stop offset="1" stop-color="#FFD9F7"/>
</radialGradient>
</defs>
</svg>
