<svg width="89" height="89" viewBox="0 0 89 89" fill="none" xmlns="http://www.w3.org/2000/svg">
<ellipse cx="42.9909" cy="86.2414" rx="8.82732" ry="2.75854" fill="#E8E8E8"/>
<path d="M66.5001 21.6917C78.4335 33.6251 76.4334 53.5666 64.5 65.5L45.8014 85.4485C42.9893 88.2606 40.8322 85.8582 38.0201 83.0461L23.6807 66.5305C11.7474 54.5972 11.7473 33.625 23.6806 21.6916C35.614 9.75825 54.5667 9.75834 66.5001 21.6917Z" fill="#EB433C"/>
<path d="M61.1032 51.4029C60.6927 51.4029 60.3239 51.152 60.1731 50.7703L52.9397 32.4558C52.6316 31.6757 51.5576 31.5987 51.1414 32.327L46.0676 41.2049C45.6833 41.8773 44.7134 41.8765 44.3303 41.2034L39.2797 32.3301C38.8646 31.6009 37.7901 31.6763 37.4809 32.4564L30.2225 50.7713C30.0715 51.1526 29.703 51.4029 29.2929 51.4029H28.543C27.9907 51.4029 27.543 51.8506 27.543 52.4029V53.568C27.543 54.1203 27.9907 54.568 28.543 54.568H39.0283C39.5806 54.568 40.0283 54.1203 40.0283 53.568V52.1777C40.0283 51.7498 39.6815 51.4029 39.2536 51.4029C38.7206 51.4029 38.3468 50.8772 38.5218 50.3737L39.2753 48.2066C39.5529 47.408 40.6348 47.293 41.0742 48.0153L44.3433 53.3896C44.7328 54.03 45.6624 54.03 46.052 53.3896L49.321 48.0153C49.7604 47.293 50.8423 47.408 51.1199 48.2066L51.8734 50.3737C52.0484 50.8772 51.6746 51.4029 51.1416 51.4029C50.7137 51.4029 50.3669 51.7498 50.3669 52.1777V53.568C50.3669 54.1203 50.8146 54.568 51.3669 54.568H61.8522C62.4045 54.568 62.8522 54.1203 62.8522 53.568V52.4029C62.8522 51.8506 62.4045 51.4029 61.8522 51.4029H61.1032Z" fill="white"/>
<path d="M29.1985 25.0019C25.8883 28.3121 24.2622 29.5259 21.4746 35.4843" stroke="white" stroke-width="4" stroke-linecap="round"/>
</svg>
